# xmcd
#
# Track frame offsets:
#	150
#	13649
#	24585
#	35660
#	52293
#	68397
#	79737
#	92344
#	104491
#	114075
#	127754
#	142855
#	157580
#	170035
#	183073
#
# Disc length: 2605 seconds
#
# Revision: 0
# Processed by: cddbd v1.5.2PL0 Copyright (c) Steve Scherf et al.
# Submitted via: dBpowerAMP V4.0
#
DISCID=ab0a2b0f
DTITLE=Jeff Potter - Great Big Beat
DYEAR=2008
DGENRE=Rockabilly
TTITLE0=She's got a Great Big Beat
TTITLE1=All Right With Me
TTITLE2=When the moon comes up
TTITLE3=Golden Roll
TTITLE4=I Can't Believe
TTITLE5=She's so Explosive
TTITLE6=Time on my Hands
TTITLE7=Somebody Loves You
TTITLE8=High Octane
TTITLE9=Kinda Lovin' Man
TTITLE10=Let's Go to The Moon
TTITLE11=Modern Busy World
TTITLE12=Get Some Rest
TTITLE13=Someof the Time
TTITLE14=The Romp
EXTD=Marg Campbell -- The Magpie
EXTT0=
EXTT1=
EXTT2=
EXTT3=
EXTT4=
EXTT5=
EXTT6=
EXTT7=
EXTT8=
EXTT9=
EXTT10=
EXTT11=
EXTT12=
EXTT13=
EXTT14=
PLAYORDER=
